<?xml version="1.0" standalone="no"?>
<!DOCTYPE svg PUBLIC "-//W3C//DTD SVG 20010904//EN"
 "http://www.w3.org/TR/2001/REC-SVG-20010904/DTD/svg10.dtd">
<svg version="1.0" xmlns="http://www.w3.org/2000/svg"
 width="147.000000pt" height="147.000000pt" viewBox="0 0 147.000000 147.000000"
 preserveAspectRatio="xMidYMid meet">
<metadata>
Created by potrace 1.11, written by Peter Selinger 2001-2013
</metadata>
<g transform="translate(0.000000,147.000000) scale(0.100000,-0.100000)"
fill="#000000" stroke="none">
<path d="M700 1325 l0 -114 -30 -16 c-27 -14 -30 -14 -39 3 -8 14 -10 14 -11
2 0 -9 7 -25 15 -37 14 -21 11 -25 -72 -99 -96 -84 -171 -136 -184 -128 -5 3
-9 17 -9 31 0 21 -2 24 -15 13 -8 -7 -15 -21 -15 -31 0 -23 64 -96 91 -104 29
-9 26 -55 -4 -55 -15 0 -47 -24 -92 -70 -38 -39 -73 -70 -77 -70 -16 0 -49 42
-44 56 4 12 2 12 -14 4 -11 -6 -20 -21 -20 -35 0 -19 13 -30 75 -61 70 -35 75
-40 75 -69 0 -27 -14 -46 -87 -118 -95 -93 -107 -96 -141 -36 -20 35 -28 36
-43 8 -9 -18 -7 -26 8 -48 27 -35 121 -90 156 -91 l27 0 0 -130 0 -130 455 0
455 0 0 130 0 130 27 0 c14 0 55 16 89 35 72 40 89 72 59 105 -22 25 -35 26
-28 2 2 -10 -6 -27 -21 -41 l-25 -24 -85 89 c-72 74 -86 94 -86 122 0 25 4 32
20 32 11 0 39 10 64 22 51 24 76 60 60 86 -14 21 -36 28 -28 9 3 -9 -6 -23
-22 -36 l-27 -22 -64 70 c-44 48 -72 71 -91 73 -21 2 -28 9 -30 31 -2 17 1 27
10 27 16 1 73 51 88 79 8 16 7 27 -4 48 l-15 28 -1 -26 c0 -34 -23 -53 -53
-45 -27 6 -150 117 -197 176 -30 37 -30 41 -16 62 18 26 22 48 5 31 -12 -12
-45 0 -61 22 -4 6 -8 58 -8 118 0 64 -4 107 -10 107 -6 0 -10 -45 -10 -115z"/>
</g>
</svg>
